<svg width="31" height="32" viewBox="0 0 31 32" fill="none" xmlns="http://www.w3.org/2000/svg">
<rect width="31" height="32" rx="4" fill="#151515"/>
<rect x="6.73663" y="5.73662" width="17.749" height="17.749" fill="#151515"/>
<path fill-rule="evenodd" clip-rule="evenodd" d="M15.6111 2C8.64619 2 3 7.69534 3 14.6111C3 21.5269 8.64619 27.2222 15.6111 27.2222C22.576 27.2222 28.2222 21.576 28.2222 14.6111C28.2222 7.64619 22.576 2 15.6111 2ZM7.03556 14.6111C7.03556 9.87496 10.875 6.03556 15.6111 6.03556C20.3473 6.03556 24.1867 9.87496 24.1867 14.6111C24.1867 19.3473 20.3473 23.1867 15.6111 23.1867C10.875 23.1867 7.03555 19.3473 7.03556 14.6111Z" fill="#FAFAFA"/>
<path fill-rule="evenodd" clip-rule="evenodd" d="M15.6111 2C8.64619 2 3 7.69534 3 14.6111C3 21.5269 8.64619 27.2222 15.6111 27.2222C22.576 27.2222 28.2222 21.576 28.2222 14.6111C28.2222 7.64619 22.576 2 15.6111 2ZM7.03556 14.6111C7.03556 9.87496 10.875 6.03556 15.6111 6.03556C20.3473 6.03556 24.1867 9.87496 24.1867 14.6111C24.1867 19.3473 20.3473 23.1867 15.6111 23.1867C10.875 23.1867 7.03555 19.3473 7.03556 14.6111Z" fill="#A3A3A3"/>
<path fill-rule="evenodd" clip-rule="evenodd" d="M15.6111 2C8.64619 2 3 7.69534 3 14.6111C3 21.5269 8.64619 27.2222 15.6111 27.2222C22.576 27.2222 28.2222 21.576 28.2222 14.6111C28.2222 7.64619 22.576 2 15.6111 2ZM7.03556 14.6111C7.03556 9.87496 10.875 6.03556 15.6111 6.03556C20.3473 6.03556 24.1867 9.87496 24.1867 14.6111C24.1867 19.3473 20.3473 23.1867 15.6111 23.1867C10.875 23.1867 7.03555 19.3473 7.03556 14.6111Z" stroke="#151515"/>
<path d="M13.5093 3.05092L25.0694 14.6111L9.30556 30.375L6.15278 27.2222L18.7639 14.6111L10.3565 6.2037L13.5093 3.05092Z" fill="#FAFAFA"/>
<path d="M9.30556 30.375L6.15278 27.2222L10.2202 23.1548L13.7428 25.9378L9.30556 30.375Z" fill="#FAFAFA" stroke="#151515"/>
<path d="M17.713 3.05092L6.15278 14.6111L21.9167 30.375L25.0694 27.2222L12.4583 14.6111L20.8657 6.2037L17.713 3.05092Z" fill="#FAFAFA"/>
<path d="M21.9167 30.375L25.0694 27.2222L20.5753 22.728L17.4794 25.9377L21.9167 30.375Z" fill="#FAFAFA" stroke="#151515"/>
<path fill-rule="evenodd" clip-rule="evenodd" d="M15.5527 2.46708C8.86194 2.49924 3.46708 7.92025 3.46708 14.6111C3.46708 21.3342 8.94647 26.7875 15.6695 26.7551C22.3603 26.723 27.7551 21.302 27.7551 14.6111C27.7551 7.888 22.2758 2.43475 15.5527 2.46708ZM6.73663 14.6111C6.73663 9.87496 10.9333 5.67824 15.6695 5.67824C20.4056 5.67824 24.6024 9.87496 24.6024 14.6111C24.6024 19.3473 20.4056 23.544 15.6695 23.544C10.9333 23.544 6.73663 19.3473 6.73663 14.6111Z" fill="#FAFAFA"/>
</svg>
